HIERARCHY
ROOT root
{
	OFFSET	0	13.1	24.9
	CHANNELS 6  Xposition Yposition Zposition Xrotation Yrotation Zrotation
	JOINT spine_1
	{
		OFFSET	0	9.99999	0
		CHANNELS 3  Xrotation Yrotation Zrotation
		JOINT spine_2
		{
			OFFSET	0	112	-10
			CHANNELS 3  Xrotation Yrotation Zrotation
			JOINT spine_3
			{
				OFFSET	0	206.5	19.3
				CHANNELS 3  Xrotation Yrotation Zrotation
				JOINT spine_4
				{
					OFFSET	0	110.4	14.6
					CHANNELS 3  Xrotation Yrotation Zrotation
					JOINT neck_1
					{
						OFFSET	0	71.8	-50.3
						CHANNELS 3  Xrotation Yrotation Zrotation
						JOINT neck_2
						{
							OFFSET	0	86.2	-25.8
							CHANNELS 3  Xrotation Yrotation Zrotation
							JOINT head_ee
							{
								OFFSET	0	179.8	-8.7
								CHANNELS 3  Xrotation Yrotation Zrotation
								End Site
								{
									OFFSET	1	0	0
								}
							}
						}
					}
					JOINT left_clavicle
					{
						OFFSET	-43.2	22.4	-70.8
						CHANNELS 3  Xrotation Yrotation Zrotation
						JOINT left_shoulder
						{
							OFFSET	-93.9	-5.79999	48.7
							CHANNELS 3  Xrotation Yrotation Zrotation
							JOINT left_elbow
							{
								OFFSET	-291.4	-30.8	15.2
								CHANNELS 3  Xrotation Yrotation Zrotation
								JOINT left_lowarm_twist
								{
									OFFSET	-110.7	-3.89999	13.6
									CHANNELS 3  Xrotation Yrotation Zrotation
									JOINT left_hand
									{
										OFFSET	-110.7	-3.89999	13.6
										CHANNELS 3  Xrotation Yrotation Zrotation
										JOINT left_ee
										{
											OFFSET	-80.8	-5.10001	12.1
											CHANNELS 3  Xrotation Yrotation Zrotation
											End Site
											{
												OFFSET	1	0	0
											}
										}
									}
								}
							}
						}
					}
					JOINT right_clavicle
					{
						OFFSET	43.2	22.4	-70.8
						CHANNELS 3  Xrotation Yrotation Zrotation
						JOINT right_shoulder
						{
							OFFSET	93.9	-5.79999	48.7
							CHANNELS 3  Xrotation Yrotation Zrotation
							JOINT right_elbow
							{
								OFFSET	291.4	-30.8	15.2
								CHANNELS 3  Xrotation Yrotation Zrotation
								JOINT right_lowarm_twist
								{
									OFFSET	110.7	-3.89999	13.6
									CHANNELS 3  Xrotation Yrotation Zrotation
									JOINT right_hand
									{
										OFFSET	110.7	-3.89999	13.6
										CHANNELS 3  Xrotation Yrotation Zrotation
										JOINT right_ee
										{
											OFFSET	80.8	-5.10001	12.1
											CHANNELS 3  Xrotation Yrotation Zrotation
											End Site
											{
												OFFSET	1	0	0
											}
										}
									}
								}
							}
						}
					}
				}
			}
		}
	}
	JOINT left_hip
	{
		OFFSET	-82.8	-127.5	0.300001
		CHANNELS 3  Xrotation Yrotation Zrotation
		JOINT left_knee
		{
			OFFSET	-28.2	-396.7	2.2
			CHANNELS 3  Xrotation Yrotation Zrotation
			JOINT left_ankle
			{
				OFFSET	-11.7	-411.3	35.4
				CHANNELS 3  Xrotation Yrotation Zrotation
				JOINT left_toes
				{
					OFFSET	0	-60	-88.6
					CHANNELS 3  Xrotation Yrotation Zrotation
					JOINT left_foot_ee
					{
						OFFSET	-22.5	-16.5	-42.2
						CHANNELS 3  Xrotation Yrotation Zrotation
						End Site
						{
							OFFSET	1	0	0
						}
					}
				}
			}
		}
	}
	JOINT right_hip
	{
		OFFSET	82.8	-127.5	0.300001
		CHANNELS 3  Xrotation Yrotation Zrotation
		JOINT right_knee
		{
			OFFSET	28.2	-396.7	2.2
			CHANNELS 3  Xrotation Yrotation Zrotation
			JOINT right_ankle
			{
				OFFSET	11.7	-411.3	35.4
				CHANNELS 3  Xrotation Yrotation Zrotation
				JOINT right_toes
				{
					OFFSET	0	-60	-88.6
					CHANNELS 3  Xrotation Yrotation Zrotation
					JOINT right_foot_ee
					{
						OFFSET	22.5	-16.5	-42.2
						CHANNELS 3  Xrotation Yrotation Zrotation
						End Site
						{
							OFFSET	1	0	0
						}
					}
				}
			}
		}
	}
}
MOTION
Frames: 7
Frame Time: 0.02
3532.99931058 719.46 -1551.44096775 2.86514729878 84.5441904046 -2.8521891668 0.370185 0.153773 1.61347 0.371632 0.0508063 1.61998 0.373618 -0.280472 1.59633 0.370062 -0.0248763 1.62058 -22.0309 3.11476 -9.37936 -21.9744 10.4466 -7.30332 -0.0 0.0 -0.0 3.94258 20.1197 8.14421 -20.9422 -31.925 56.428 1.37581 -34.2739 0.424244 -83.6686 -8.28509 5.21534 -2.14875 22.0741 -3.68015 -0.0 0.0 -0.0 12.2406 19.4882 -24.5223 -12.5009 13.8554 -63.3779 0.64005 17.5919 -0.0990399 -0.883634 0.0319713 -0.108315 -2.04933 -15.9861 6.09209 0.0 0.0 0.0 13.4764 35.0084 -10.8384 -9.58549 0.274426 1.44376 19.7618 -17.0344 -2.9598 -27.4911 0.0 0.0 -0.0 0.0 -0.0 6.31074 -4.72092 0.400769 -30.2678 -0.0337145 -4.59124 38.4743 14.0114 4.99803 -9.9733 0.0 0.0 0.0 0.0 0.0 
3535.73035142 719.46 -1552.85398593 2.09357609191 82.5250339941 -2.07580009403 0.370185 0.153773 1.61347 0.371632 0.0508063 1.61998 0.373618 -0.280472 1.59633 0.370062 -0.0248763 1.62058 -22.0309 3.11476 -9.37936 -21.9744 10.4466 -7.30332 -0.0 0.0 -0.0 3.94258 20.1197 8.14421 -20.9422 -31.925 56.428 1.37581 -34.2739 0.424244 -83.6686 -8.28509 5.21534 -2.14875 22.0741 -3.68015 -0.0 0.0 -0.0 12.2406 19.4882 -24.5223 -12.5009 13.8554 -63.3779 0.64005 17.5919 -0.0990399 -0.883634 0.0319713 -0.108315 -2.04933 -15.9861 6.09209 0.0 0.0 0.0 13.4764 35.0084 -10.8384 -9.58549 0.274426 1.44376 19.7618 -17.0344 -2.9598 -27.4911 0.0 0.0 -0.0 0.0 -0.0 6.31074 -4.72092 0.400769 -30.2678 -0.0337145 -4.59124 38.4743 14.0114 4.99803 -9.9733 0.0 0.0 0.0 0.0 0.0 
3536.60110755 722.523 -1558.10739916 1.22712277247 85.7284355701 -2.34197190725 0.163045 0.107196 1.60296 0.164475 0.00499113 1.60654 0.165197 -0.328325 1.57264 0.161754 -0.075868 1.60475 -23.6354 3.79692 -9.32096 -23.6462 11.4708 -6.82923 -0.0 0.0 -0.0 3.80415 19.5345 7.93485 -21.8634 -32.0124 56.8336 1.35308 -33.8312 0.411515 -83.4394 -8.2563 5.22024 -1.99767 23.3526 -2.1778 -0.0 0.0 -0.0 12.2972 20.5977 -24.5738 -11.6582 13.9226 -62.7605 0.704284 19.233 -0.11933 -0.021157 0.000745866 -0.00259905 -1.82198 -15.2739 5.02918 0.0 0.0 0.0 13.0366 35.2457 -8.53234 -8.76794 0.26049 1.31909 22.8272 -17.4794 -3.3736 -28.463 0.0 0.0 -0.0 0.0 -0.0 6.6311 -4.94135 -0.305431 -30.449 -0.0266084 -4.61813 37.6903 15.2291 4.96338 -11.4572 0.0 0.0 0.0 0.0 0.0 
3522.12708662 723.034 -1555.70978649 22.0831082812 88.0000370907 -23.7288004219 -0.0456104 0.40109 1.75766 -0.0439379 0.288451 1.77961 -0.0339424 -0.0930721 1.80042 -0.0384145 0.192392 1.79253 -24.1376 3.53566 -7.10014 -24.1917 9.91472 -4.85756 -0.0 0.0 -0.0 3.35245 18.9789 7.24723 -22.4939 -32.2768 57.8237 1.25312 -31.829 0.357317 -83.0153 -8.20296 5.229 -1.67437 25.6579 0.747511 -0.0 0.0 -0.0 12.2179 20.3297 -24.411 -10.8635 14.0334 -62.4806 0.752147 20.4349 -0.135571 0.927617 -0.0317592 0.114215 -1.63108 -14.3031 4.30101 0.0 0.0 0.0 15.7197 34.0879 -10.596 -14.3579 0.320171 2.17438 23.8283 -16.5117 -3.47545 -31.1065 0.0 0.0 -0.0 0.0 -0.0 4.0929 -5.52801 0.534017 -28.0431 -0.11403 -4.25929 36.5756 13.1104 4.79463 -15.4881 0.0 0.0 0.0 0.0 0.0 
3505.29106337 718.675 -1551.90644761 135.499914053 86.707479806 -137.787720672 -0.381778 0.363081 1.99706 -0.37959 0.235293 2.0161 -0.369854 -0.206774 2.01923 -0.375525 0.114653 2.02654 -22.7655 3.79115 -7.45206 -22.8204 10.7425 -5.1452 -0.0 0.0 -0.0 3.38911 18.773 7.29843 -23.5154 -32.273 58.2892 1.03359 -27.1122 0.249219 -82.8922 -8.18746 5.23147 -1.56886 24.9158 0.997596 -0.0 0.0 -0.0 12.6638 21.6989 -25.3328 -9.08902 14.4017 -62.5226 0.688553 18.834 -0.114201 0.6353 -0.0219508 0.0781681 -1.60569 -14.5366 4.03335 0.0 0.0 0.0 20.557 34.0309 -10.0166 -8.39816 0.253603 1.26276 21.1919 -16.4063 -3.13462 -31.0243 0.0 0.0 -0.0 0.0 -0.0 0.675609 -5.07056 0.752853 -26.2903 -0.168186 -3.99575 38.3341 13.5966 4.97292 -13.888 0.0 0.0 0.0 0.0 0.0 
3496.48700187 715.103 -1551.64072053 154.891499291 85.2422183474 -157.531422827 -0.249863 0.494995 2.2404 -0.247139 0.351466 2.26734 -0.231403 -0.142155 2.29 -0.238653 0.221195 2.28372 -24.2985 4.34687 -6.54144 -24.4306 11.2156 -3.92046 -0.0 0.0 -0.0 3.10323 18.3951 6.85453 -24.5977 -32.6682 58.3846 0.90385 -24.1197 0.19311 -82.3234 -8.11579 5.24243 -1.33088 24.6014 2.19946 -0.0 0.0 -0.0 12.9951 22.3671 -26.0432 -9.91284 14.1449 -61.494 0.852926 22.9046 -0.172793 0.851109 -0.0292097 0.104775 -1.50658 -12.8082 4.21619 0.0 0.0 0.0 22.3848 34.6066 -9.25063 -8.33996 0.252486 1.2539 20.5902 -13.8928 -3.0015 -31.3317 0.0 0.0 -0.0 0.0 -0.0 0.328321 -7.57259 0.879971 -23.4885 -0.23793 -3.57147 39.0253 11.598 4.98037 -14.8714 0.0 0.0 0.0 0.0 0.0 
3487.4143668 718.294 -1551.65089362 166.566373302 82.838691213 -169.582262079 -0.0908926 0.417514 2.49062 -0.0874785 0.258234 2.51212 -0.0742123 -0.278868 2.50992 -0.0829832 0.120897 2.52246 -23.3955 4.53389 -6.18337 -23.54 11.5216 -3.56097 -0.0 0.0 -0.0 2.91741 18.1613 6.56348 -26.0339 -32.0406 58.1801 0.749127 -20.3596 0.134519 -81.2797 -7.98395 5.26068 -0.880815 22.8268 4.00926 -0.0 0.0 -0.0 12.7517 19.3484 -25.713 -10.028 16.069 -60.9834 0.929248 24.7173 -0.20361 -0.686059 0.0246773 -0.0841388 -1.60058 -11.5609 5.39233 0.0 0.0 0.0 23.35 35.8742 -9.29347 -10.0558 0.281635 1.51557 21.7848 -11.7444 -3.11328 -29.4134 0.0 0.0 -0.0 0.0 -0.0 -1.31025 -7.10881 0.618257 -19.4514 -0.301763 -2.9554 39.1806 11.4853 4.9913 -15.515 0.0 0.0 0.0 0.0 0.0 
